# xmcd
#
# Track frame offsets:
# 150
# 16518
# 27878
# 40225
# 57918
# 72455
# 84913
# 99110
# 110243
# 122060
#
# Disc length: 1861 seconds
#
#
# Revision: 0
# Processed by: cddbd v1.5.1PL0 Copyright (c) Steve Scherf et al.
# Submitted via: FreeRIP 2.80 
#
DISCID=7607430a
DTITLE=Pedro Vargas - 
DYEAR=1900
DGENRE=Latin
TTITLE0=Mujer
TTITLE1=Parece Que Fue Ayer
TTITLE2=Te Traigo Serenata
TTITLE3=Santa
TTITLE4=Traicionera
TTITLE5=Te Solte La Rienda
TTITLE6=Obsecion
TTITLE7=Quien Sera
TTITLE8=Piel Canela
TTITLE9=A Donde Va Nuestro Amor
EXTD=
EXTT0=
EXTT1=
EXTT2=
EXTT3=
EXTT4=
EXTT5=
EXTT6=
EXTT7=
EXTT8=
EXTT9=
PLAYORDER=
